<svg xmlns="http://www.w3.org/2000/svg" width="30px" height="30px" viewBox="0 0 30 30"><defs><style>.cls-1{fill:#1866be;fill-rule:evenodd;}</style></defs><title>details</title><g id="Layer_2" data-name="Layer 2"><g id="Layer_1-2" data-name="Layer 1"><path class="cls-1" d="M8.35,23a1.17,1.17,0,1,1,0-2.34H21.65a1.17,1.17,0,1,1,0,2.34Zm0-6.81a1.17,1.17,0,1,1,0-2.34H15a1.17,1.17,0,1,1,0,2.34Zm0-6.8A1.17,1.17,0,1,1,8.35,7H21.65a1.17,1.17,0,1,1,0,2.34Zm16.16-7h-19A3.15,3.15,0,0,0,2.34,5.49v19a3.15,3.15,0,0,0,3.14,3.14h19a3.15,3.15,0,0,0,3.14-3.14v-19a3.15,3.15,0,0,0-3.14-3.14ZM5.49,0h19A5.5,5.5,0,0,1,30,5.49v19A5.51,5.51,0,0,1,24.51,30h-19A5.5,5.5,0,0,1,0,24.51v-19A5.49,5.49,0,0,1,1.61,1.61h0A5.49,5.49,0,0,1,5.49,0Z"/></g></g></svg>