<svg xmlns="http://www.w3.org/2000/svg" width="30px" height="30px" viewBox="0 0 30 30"><defs><style>.cls-1{fill:#1866be;}</style></defs><title>mail settings</title><g id="Layer_2" data-name="Layer 2"><g id="Layer_1-2" data-name="Layer 1"><path class="cls-1" d="M15,19a4,4,0,1,0-4-4A4,4,0,0,0,15,19Zm0,1.76A5.74,5.74,0,1,1,20.74,15,5.73,5.73,0,0,1,15,20.74Zm13.56-8.94A1.77,1.77,0,0,1,30,13.53v2.95a1.77,1.77,0,0,1-1.44,1.74l-2.26.42A.88.88,0,0,1,26,16.9l2.26-.43V13.53L26,13.1a.88.88,0,0,1-.69-.66,10.52,10.52,0,0,0-1.21-2.91.88.88,0,0,1,0-1l1.3-1.9L23.32,4.6l-1.9,1.3a.88.88,0,0,1-1,0,10.52,10.52,0,0,0-2.91-1.21A.88.88,0,0,1,16.9,4l-.43-2.26H13.53L13.1,4a.88.88,0,0,1-.66.69A10.52,10.52,0,0,0,9.54,5.93a.88.88,0,0,1-1,0L6.68,4.6,4.6,6.68l1.3,1.9a.88.88,0,0,1,0,1,10.52,10.52,0,0,0-1.21,2.91A.88.88,0,0,1,4,13.1l-2.26.43v2.95L4,16.9a.88.88,0,0,1,.69.66,10.52,10.52,0,0,0,1.21,2.91.88.88,0,0,1,0,1l-1.3,1.9L6.68,25.4l1.9-1.3a.88.88,0,0,1,1,0,10.52,10.52,0,0,0,2.91,1.21.88.88,0,0,1,.66.69l.43,2.26a.88.88,0,0,1,0,1.76,1.77,1.77,0,0,1-1.74-1.44l-.32-1.72a12.32,12.32,0,0,1-2.34-1l-1.44,1a1.76,1.76,0,0,1-2.24-.21L3.35,24.57a1.76,1.76,0,0,1-.21-2.24l1-1.44a12.32,12.32,0,0,1-1-2.34l-1.72-.32A1.77,1.77,0,0,1,0,16.47V13.53a1.77,1.77,0,0,1,1.44-1.74l1.72-.32a12.32,12.32,0,0,1,1-2.34l-1-1.44a1.76,1.76,0,0,1,.21-2.24L5.44,3.35a1.76,1.76,0,0,1,2.24-.21l1.44,1a12.32,12.32,0,0,1,2.34-1l.32-1.72A1.77,1.77,0,0,1,13.53,0h2.95a1.77,1.77,0,0,1,1.74,1.44l.32,1.72a12.32,12.32,0,0,1,2.34,1l1.44-1a1.76,1.76,0,0,1,2.24.21l2.08,2.08a1.76,1.76,0,0,1,.21,2.24l-1,1.44a12.32,12.32,0,0,1,1,2.34ZM20.9,22.5l2.92,2.39,2.92-2.39Zm-1.49,1.06v4.67h8.82V23.56l-3.85,3.15a.88.88,0,0,1-1.12,0ZM17.65,22.5a1.77,1.77,0,0,1,1.77-1.76h8.82A1.76,1.76,0,0,1,30,22.5v5.74A1.77,1.77,0,0,1,28.23,30H19.41a1.76,1.76,0,0,1-1.77-1.76Z"/></g></g></svg>