<svg xmlns="http://www.w3.org/2000/svg" width="30px" height="30px" viewBox="0 0 30 30"><defs><style>.cls-1{fill:#1866be;}</style></defs><title>settings</title><g id="Layer_2" data-name="Layer 2"><g id="Layer_1-2" data-name="Layer 1"><path class="cls-1" d="M10,2.5A2.5,2.5,0,1,1,7.5,5,2.5,2.5,0,0,1,10,2.5ZM1.25,6.25H5.18a5,5,0,0,0,9.64,0H28.75a1.25,1.25,0,0,0,0-2.5H14.82a5,5,0,0,0-9.64,0H1.25a1.25,1.25,0,0,0,0,2.5Z"/><path class="cls-1" d="M20,12.5A2.5,2.5,0,1,1,17.5,15,2.5,2.5,0,0,1,20,12.5ZM1.25,16.25H15.18a5,5,0,0,0,9.64,0h3.93a1.25,1.25,0,0,0,0-2.5H24.82a5,5,0,0,0-9.64,0H1.25a1.25,1.25,0,0,0,0,2.5Z"/><path class="cls-1" d="M10,22.5A2.5,2.5,0,1,1,7.5,25,2.5,2.5,0,0,1,10,22.5ZM1.25,26.25H5.18a5,5,0,0,0,9.64,0H28.75a1.25,1.25,0,0,0,0-2.5H14.82a5,5,0,0,0-9.64,0H1.25a1.25,1.25,0,0,0,0,2.5Z"/></g></g></svg>